<svg id="visual" viewBox="0 0 1600 900" width="1600" height="900" xmlns="http://www.w3.org/2000/svg" xmlns:xlink="http://www.w3.org/1999/xlink" version="1.1"><rect x="0" y="0" width="1600" height="900" fill="#A5C1D8"></rect><path d="M0 672L44.5 662.5C89 653 178 634 266.8 626.5C355.7 619 444.3 623 533.2 645.2C622 667.3 711 707.7 800 706.5C889 705.3 978 662.7 1066.8 663.8C1155.7 665 1244.3 710 1333.2 721.7C1422 733.3 1511 711.7 1555.5 700.8L1600 690L1600 901L1555.5 901C1511 901 1422 901 1333.2 901C1244.3 901 1155.7 901 1066.8 901C978 901 889 901 800 901C711 901 622 901 533.2 901C444.3 901 355.7 901 266.8 901C178 901 89 901 44.5 901L0 901Z" fill="#ffffff"></path><path d="M0 752L44.5 751.7C89 751.3 178 750.7 266.8 763.2C355.7 775.7 444.3 801.3 533.2 807.5C622 813.7 711 800.3 800 797.2C889 794 978 801 1066.8 802.2C1155.7 803.3 1244.3 798.7 1333.2 785.2C1422 771.7 1511 749.3 1555.5 738.2L1600 727L1600 901L1555.5 901C1511 901 1422 901 1333.2 901C1244.3 901 1155.7 901 1066.8 901C978 901 889 901 800 901C711 901 622 901 533.2 901C444.3 901 355.7 901 266.8 901C178 901 89 901 44.5 901L0 901Z" fill="#042883"></path></svg>