<svg id="visual" viewBox="0 0 1600 900" width="1600" height="900" xmlns="http://www.w3.org/2000/svg" xmlns:xlink="http://www.w3.org/1999/xlink" version="1.1"><rect x="0" y="0" width="1600" height="900" fill="#042883"></rect><path d="M0 694L38.2 693.2C76.3 692.3 152.7 690.7 228.8 686.2C305 681.7 381 674.3 457.2 683.2C533.3 692 609.7 717 685.8 709C762 701 838 660 914.2 663.7C990.3 667.3 1066.7 715.7 1142.8 717.3C1219 719 1295 674 1371.2 663C1447.3 652 1523.7 675 1561.8 686.5L1600 698L1600 901L1561.8 901C1523.7 901 1447.3 901 1371.2 901C1295 901 1219 901 1142.8 901C1066.7 901 990.3 901 914.2 901C838 901 762 901 685.8 901C609.7 901 533.3 901 457.2 901C381 901 305 901 228.8 901C152.7 901 76.3 901 38.2 901L0 901Z" fill="#ffffff"></path><path d="M0 733L38.2 736.8C76.3 740.7 152.7 748.3 228.8 766.5C305 784.7 381 813.3 457.2 807.2C533.3 801 609.7 760 685.8 754.5C762 749 838 779 914.2 792.5C990.3 806 1066.7 803 1142.8 805.2C1219 807.3 1295 814.7 1371.2 807.5C1447.3 800.3 1523.7 778.7 1561.8 767.8L1600 757L1600 901L1561.8 901C1523.7 901 1447.3 901 1371.2 901C1295 901 1219 901 1142.8 901C1066.7 901 990.3 901 914.2 901C838 901 762 901 685.8 901C609.7 901 533.3 901 457.2 901C381 901 305 901 228.8 901C152.7 901 76.3 901 38.2 901L0 901Z" fill="#a5c1d8"></path></svg>