<svg id="visual" viewBox="0 0 1600 900" width="1600" height="900" xmlns="http://www.w3.org/2000/svg" xmlns:xlink="http://www.w3.org/1999/xlink" version="1.1"><rect x="0" y="0" width="1600" height="900" fill="#FFFFFF"></rect><path d="M0 560L29.7 572.7C59.3 585.3 118.7 610.7 178 608.5C237.3 606.3 296.7 576.7 355.8 556.5C415 536.3 474 525.7 533.2 558C592.3 590.3 651.7 665.7 711 685.3C770.3 705 829.7 669 889 644.5C948.3 620 1007.7 607 1066.8 595.2C1126 583.3 1185 572.7 1244.2 586.8C1303.3 601 1362.7 640 1422 650.5C1481.3 661 1540.7 643 1570.3 634L1600 625L1600 901L1570.3 901C1540.7 901 1481.3 901 1422 901C1362.7 901 1303.3 901 1244.2 901C1185 901 1126 901 1066.8 901C1007.7 901 948.3 901 889 901C829.7 901 770.3 901 711 901C651.7 901 592.3 901 533.2 901C474 901 415 901 355.8 901C296.7 901 237.3 901 178 901C118.7 901 59.3 901 29.7 901L0 901Z" fill="#a5c1d8"></path><path d="M0 758L29.7 767.2C59.3 776.3 118.7 794.7 178 779.3C237.3 764 296.7 715 355.8 716.7C415 718.3 474 770.7 533.2 797.3C592.3 824 651.7 825 711 807.8C770.3 790.7 829.7 755.3 889 759.7C948.3 764 1007.7 808 1066.8 797.2C1126 786.3 1185 720.7 1244.2 691C1303.3 661.3 1362.7 667.7 1422 689.7C1481.3 711.7 1540.7 749.3 1570.3 768.2L1600 787L1600 901L1570.3 901C1540.7 901 1481.3 901 1422 901C1362.7 901 1303.3 901 1244.2 901C1185 901 1126 901 1066.8 901C1007.7 901 948.3 901 889 901C829.7 901 770.3 901 711 901C651.7 901 592.3 901 533.2 901C474 901 415 901 355.8 901C296.7 901 237.3 901 178 901C118.7 901 59.3 901 29.7 901L0 901Z" fill="#042883"></path></svg>