<svg id="visual" viewBox="0 0 1600 900" width="1600" height="900" xmlns="http://www.w3.org/2000/svg" xmlns:xlink="http://www.w3.org/1999/xlink" version="1.1"><rect x="0" y="0" width="1600" height="900" fill="#FFFFFF"></rect><path d="M0 525L29.7 539.5C59.3 554 118.7 583 178 584.3C237.3 585.7 296.7 559.3 355.8 595.7C415 632 474 731 533.2 774C592.3 817 651.7 804 711 792.7C770.3 781.3 829.7 771.7 889 773.5C948.3 775.3 1007.7 788.7 1066.8 758.8C1126 729 1185 656 1244.2 646.8C1303.3 637.7 1362.7 692.3 1422 718C1481.3 743.7 1540.7 740.3 1570.3 738.7L1600 737L1600 901L1570.3 901C1540.7 901 1481.3 901 1422 901C1362.7 901 1303.3 901 1244.2 901C1185 901 1126 901 1066.8 901C1007.7 901 948.3 901 889 901C829.7 901 770.3 901 711 901C651.7 901 592.3 901 533.2 901C474 901 415 901 355.8 901C296.7 901 237.3 901 178 901C118.7 901 59.3 901 29.7 901L0 901Z" fill="#042883" stroke-linecap="round" stroke-linejoin="miter"></path></svg>