<svg id="visual" viewBox="0 0 1600 900" width="1600" height="900" xmlns="http://www.w3.org/2000/svg" xmlns:xlink="http://www.w3.org/1999/xlink" version="1.1"><rect x="0" y="0" width="1600" height="900" fill="#042883"></rect><path d="M0 571L26.7 579.8C53.3 588.7 106.7 606.3 160 600.8C213.3 595.3 266.7 566.7 320 580.5C373.3 594.3 426.7 650.7 480 651C533.3 651.3 586.7 595.7 640 591.8C693.3 588 746.7 636 800 662.2C853.3 688.3 906.7 692.7 960 673.7C1013.3 654.7 1066.7 612.3 1120 612.7C1173.3 613 1226.7 656 1280 680.2C1333.3 704.3 1386.7 709.7 1440 706C1493.3 702.3 1546.7 689.7 1573.3 683.3L1600 677L1600 901L1573.3 901C1546.7 901 1493.3 901 1440 901C1386.7 901 1333.3 901 1280 901C1226.7 901 1173.3 901 1120 901C1066.7 901 1013.3 901 960 901C906.7 901 853.3 901 800 901C746.7 901 693.3 901 640 901C586.7 901 533.3 901 480 901C426.7 901 373.3 901 320 901C266.7 901 213.3 901 160 901C106.7 901 53.3 901 26.7 901L0 901Z" fill="#ededed"></path><path d="M0 669L26.7 669.2C53.3 669.3 106.7 669.7 160 679.5C213.3 689.3 266.7 708.7 320 720.2C373.3 731.7 426.7 735.3 480 739.3C533.3 743.3 586.7 747.7 640 736.8C693.3 726 746.7 700 800 697.7C853.3 695.3 906.7 716.7 960 714.3C1013.3 712 1066.7 686 1120 697.7C1173.3 709.3 1226.7 758.7 1280 786.8C1333.3 815 1386.7 822 1440 812.3C1493.3 802.7 1546.7 776.3 1573.3 763.2L1600 750L1600 901L1573.3 901C1546.7 901 1493.3 901 1440 901C1386.7 901 1333.3 901 1280 901C1226.7 901 1173.3 901 1120 901C1066.7 901 1013.3 901 960 901C906.7 901 853.3 901 800 901C746.7 901 693.3 901 640 901C586.7 901 533.3 901 480 901C426.7 901 373.3 901 320 901C266.7 901 213.3 901 160 901C106.7 901 53.3 901 26.7 901L0 901Z" fill="#a5c1d8"></path></svg>