<svg id="visual" viewBox="0 0 2000 1000" width="2000" height="1000" xmlns="http://www.w3.org/2000/svg" xmlns:xlink="http://www.w3.org/1999/xlink" version="1.1"><rect x="0" y="0" width="2000" height="1000" fill="#042883"></rect><path d="M0 728L47.7 730.5C95.3 733 190.7 738 285.8 750C381 762 476 781 571.2 798.2C666.3 815.3 761.7 830.7 857 827.7C952.3 824.7 1047.7 803.3 1143 796C1238.3 788.7 1333.7 795.3 1428.8 799.7C1524 804 1619 806 1714.2 798.8C1809.3 791.7 1904.7 775.3 1952.3 767.2L2000 759L2000 1001L1952.3 1001C1904.7 1001 1809.3 1001 1714.2 1001C1619 1001 1524 1001 1428.8 1001C1333.7 1001 1238.3 1001 1143 1001C1047.7 1001 952.3 1001 857 1001C761.7 1001 666.3 1001 571.2 1001C476 1001 381 1001 285.8 1001C190.7 1001 95.3 1001 47.7 1001L0 1001Z" fill="#ffffff"></path><path d="M0 950L47.7 931.2C95.3 912.3 190.7 874.7 285.8 867.3C381 860 476 883 571.2 883.2C666.3 883.3 761.7 860.7 857 866.3C952.3 872 1047.7 906 1143 907.2C1238.3 908.3 1333.7 876.7 1428.8 857.5C1524 838.3 1619 831.7 1714.2 841.3C1809.3 851 1904.7 877 1952.3 890L2000 903L2000 1001L1952.3 1001C1904.7 1001 1809.3 1001 1714.2 1001C1619 1001 1524 1001 1428.8 1001C1333.7 1001 1238.3 1001 1143 1001C1047.7 1001 952.3 1001 857 1001C761.7 1001 666.3 1001 571.2 1001C476 1001 381 1001 285.8 1001C190.7 1001 95.3 1001 47.7 1001L0 1001Z" fill="#a5c1d8"></path></svg>