<svg id="visual" viewBox="0 0 1600 900" width="1600" height="900" xmlns="http://www.w3.org/2000/svg" xmlns:xlink="http://www.w3.org/1999/xlink" version="1.1"><rect x="0" y="0" width="1600" height="900" fill="#A5C1D8"></rect><path d="M0 558L24.2 561.3C48.3 564.7 96.7 571.3 145.2 598.5C193.7 625.7 242.3 673.3 290.8 699.5C339.3 725.7 387.7 730.3 436.2 718.5C484.7 706.7 533.3 678.3 581.8 660C630.3 641.7 678.7 633.3 727.2 630.3C775.7 627.3 824.3 629.7 872.8 638.2C921.3 646.7 969.7 661.3 1018.2 654.2C1066.7 647 1115.3 618 1163.8 595.5C1212.3 573 1260.7 557 1309.2 581.5C1357.7 606 1406.3 671 1454.8 688.3C1503.3 705.7 1551.7 675.3 1575.8 660.2L1600 645L1600 901L1575.8 901C1551.7 901 1503.3 901 1454.8 901C1406.3 901 1357.7 901 1309.2 901C1260.7 901 1212.3 901 1163.8 901C1115.3 901 1066.7 901 1018.2 901C969.7 901 921.3 901 872.8 901C824.3 901 775.7 901 727.2 901C678.7 901 630.3 901 581.8 901C533.3 901 484.7 901 436.2 901C387.7 901 339.3 901 290.8 901C242.3 901 193.7 901 145.2 901C96.7 901 48.3 901 24.2 901L0 901Z" fill="#ededed"></path><path d="M0 828L24.2 825C48.3 822 96.7 816 145.2 809.8C193.7 803.7 242.3 797.3 290.8 780.8C339.3 764.3 387.7 737.7 436.2 743.8C484.7 750 533.3 789 581.8 789.2C630.3 789.3 678.7 750.7 727.2 734.3C775.7 718 824.3 724 872.8 737C921.3 750 969.7 770 1018.2 782.5C1066.7 795 1115.3 800 1163.8 784.5C1212.3 769 1260.7 733 1309.2 730C1357.7 727 1406.3 757 1454.8 775.3C1503.3 793.7 1551.7 800.3 1575.8 803.7L1600 807L1600 901L1575.8 901C1551.7 901 1503.3 901 1454.8 901C1406.3 901 1357.7 901 1309.2 901C1260.7 901 1212.3 901 1163.8 901C1115.3 901 1066.7 901 1018.2 901C969.7 901 921.3 901 872.8 901C824.3 901 775.7 901 727.2 901C678.7 901 630.3 901 581.8 901C533.3 901 484.7 901 436.2 901C387.7 901 339.3 901 290.8 901C242.3 901 193.7 901 145.2 901C96.7 901 48.3 901 24.2 901L0 901Z" fill="#042883"></path></svg>