<svg id="visual" viewBox="0 0 2000 1000" width="2000" height="1000" xmlns="http://www.w3.org/2000/svg" xmlns:xlink="http://www.w3.org/1999/xlink" version="1.1"><rect x="0" y="0" width="2000" height="1000" fill="#a5c1d8"></rect><path d="M0 867L47.7 863.8C95.3 860.7 190.7 854.3 285.8 857.5C381 860.7 476 873.3 571.2 876.3C666.3 879.3 761.7 872.7 857 851.5C952.3 830.3 1047.7 794.7 1143 796.7C1238.3 798.7 1333.7 838.3 1428.8 861.3C1524 884.3 1619 890.7 1714.2 889.7C1809.3 888.7 1904.7 880.3 1952.3 876.2L2000 872L2000 1001L1952.3 1001C1904.7 1001 1809.3 1001 1714.2 1001C1619 1001 1524 1001 1428.8 1001C1333.7 1001 1238.3 1001 1143 1001C1047.7 1001 952.3 1001 857 1001C761.7 1001 666.3 1001 571.2 1001C476 1001 381 1001 285.8 1001C190.7 1001 95.3 1001 47.7 1001L0 1001Z" fill="#ffffff"></path><path d="M0 978L47.7 952C95.3 926 190.7 874 285.8 852.5C381 831 476 840 571.2 854.7C666.3 869.3 761.7 889.7 857 902.3C952.3 915 1047.7 920 1143 928.3C1238.3 936.7 1333.7 948.3 1428.8 948.3C1524 948.3 1619 936.7 1714.2 913.7C1809.3 890.7 1904.7 856.3 1952.3 839.2L2000 822L2000 1001L1952.3 1001C1904.7 1001 1809.3 1001 1714.2 1001C1619 1001 1524 1001 1428.8 1001C1333.7 1001 1238.3 1001 1143 1001C1047.7 1001 952.3 1001 857 1001C761.7 1001 666.3 1001 571.2 1001C476 1001 381 1001 285.8 1001C190.7 1001 95.3 1001 47.7 1001L0 1001Z" fill="#042883"></path></svg>