<svg id="visual" viewBox="0 0 2000 1000" width="2000" height="1000" xmlns="http://www.w3.org/2000/svg" xmlns:xlink="http://www.w3.org/1999/xlink" version="1.1"><rect x="0" y="0" width="2000" height="1000" fill="#FFFFFF"></rect><path d="M0 762L47.7 769.8C95.3 777.7 190.7 793.3 285.8 788.2C381 783 476 757 571.2 763.3C666.3 769.7 761.7 808.3 857 818.5C952.3 828.7 1047.7 810.3 1143 792.3C1238.3 774.3 1333.7 756.7 1428.8 746.2C1524 735.7 1619 732.3 1714.2 741.2C1809.3 750 1904.7 771 1952.3 781.5L2000 792L2000 1001L1952.3 1001C1904.7 1001 1809.3 1001 1714.2 1001C1619 1001 1524 1001 1428.8 1001C1333.7 1001 1238.3 1001 1143 1001C1047.7 1001 952.3 1001 857 1001C761.7 1001 666.3 1001 571.2 1001C476 1001 381 1001 285.8 1001C190.7 1001 95.3 1001 47.7 1001L0 1001Z" fill="#a5c1d8"></path><path d="M0 856L47.7 856.2C95.3 856.3 190.7 856.7 285.8 851C381 845.3 476 833.7 571.2 840.8C666.3 848 761.7 874 857 875.3C952.3 876.7 1047.7 853.3 1143 848.8C1238.3 844.3 1333.7 858.7 1428.8 860.2C1524 861.7 1619 850.3 1714.2 853.2C1809.3 856 1904.7 873 1952.3 881.5L2000 890L2000 1001L1952.3 1001C1904.7 1001 1809.3 1001 1714.2 1001C1619 1001 1524 1001 1428.8 1001C1333.7 1001 1238.3 1001 1143 1001C1047.7 1001 952.3 1001 857 1001C761.7 1001 666.3 1001 571.2 1001C476 1001 381 1001 285.8 1001C190.7 1001 95.3 1001 47.7 1001L0 1001Z" fill="#042883"></path></svg>