<svg id="visual" viewBox="0 0 1600 800" width="1600" height="800" xmlns="http://www.w3.org/2000/svg" xmlns:xlink="http://www.w3.org/1999/xlink" version="1.1"><rect x="0" y="0" width="1600" height="800" fill="#FFFFFF"></rect><defs><linearGradient id="grad1_0" x1="50%" y1="0%" x2="100%" y2="100%"><stop offset="10%" stop-color="#042883" stop-opacity="1"></stop><stop offset="90%" stop-color="#042883" stop-opacity="1"></stop></linearGradient></defs><defs><linearGradient id="grad1_1" x1="50%" y1="0%" x2="100%" y2="100%"><stop offset="10%" stop-color="#042883" stop-opacity="1"></stop><stop offset="90%" stop-color="#6d68ac" stop-opacity="1"></stop></linearGradient></defs><defs><linearGradient id="grad1_2" x1="50%" y1="0%" x2="100%" y2="100%"><stop offset="10%" stop-color="#b6b1d5" stop-opacity="1"></stop><stop offset="90%" stop-color="#6d68ac" stop-opacity="1"></stop></linearGradient></defs><defs><linearGradient id="grad1_3" x1="50%" y1="0%" x2="100%" y2="100%"><stop offset="10%" stop-color="#b6b1d5" stop-opacity="1"></stop><stop offset="90%" stop-color="#ffffff" stop-opacity="1"></stop></linearGradient></defs><defs><linearGradient id="grad2_0" x1="0%" y1="0%" x2="50%" y2="100%"><stop offset="10%" stop-color="#042883" stop-opacity="1"></stop><stop offset="90%" stop-color="#042883" stop-opacity="1"></stop></linearGradient></defs><defs><linearGradient id="grad2_1" x1="0%" y1="0%" x2="50%" y2="100%"><stop offset="10%" stop-color="#6d68ac" stop-opacity="1"></stop><stop offset="90%" stop-color="#042883" stop-opacity="1"></stop></linearGradient></defs><defs><linearGradient id="grad2_2" x1="0%" y1="0%" x2="50%" y2="100%"><stop offset="10%" stop-color="#6d68ac" stop-opacity="1"></stop><stop offset="90%" stop-color="#b6b1d5" stop-opacity="1"></stop></linearGradient></defs><defs><linearGradient id="grad2_3" x1="0%" y1="0%" x2="50%" y2="100%"><stop offset="10%" stop-color="#ffffff" stop-opacity="1"></stop><stop offset="90%" stop-color="#b6b1d5" stop-opacity="1"></stop></linearGradient></defs><g transform="translate(1600, 0)"><path d="M0 440C-70.2 417.5 -140.3 395 -208.5 361.1C-276.7 327.3 -342.8 282.1 -381.1 220C-419.3 157.9 -429.6 79 -440 0L0 0Z" fill="#dad7ea"></path><path d="M0 330C-52.6 313.1 -105.3 296.2 -156.4 270.8C-207.5 245.5 -257.1 211.6 -285.8 165C-314.5 118.4 -322.2 59.2 -330 0L0 0Z" fill="#928cc1"></path><path d="M0 220C-35.1 208.7 -70.2 197.5 -104.2 180.6C-138.3 163.6 -171.4 141 -190.5 110C-209.6 79 -214.8 39.5 -220 0L0 0Z" fill="#454798"></path><path d="M0 110C-17.5 104.4 -35.1 98.7 -52.1 90.3C-69.2 81.8 -85.7 70.5 -95.3 55C-104.8 39.5 -107.4 19.7 -110 0L0 0Z" fill="#042883"></path></g><g transform="translate(0, 800)"><path d="M0 -440C63.2 -405.5 126.5 -371 195.5 -338.6C264.5 -306.3 339.3 -276.1 381.1 -220C422.8 -163.9 431.4 -82 440 0L0 0Z" fill="#dad7ea"></path><path d="M0 -330C47.4 -304.1 94.9 -278.2 146.6 -254C198.4 -229.7 254.5 -207.1 285.8 -165C317.1 -122.9 323.5 -61.5 330 0L0 0Z" fill="#928cc1"></path><path d="M0 -220C31.6 -202.7 63.2 -185.5 97.7 -169.3C132.3 -153.1 169.7 -138 190.5 -110C211.4 -82 215.7 -41 220 0L0 0Z" fill="#454798"></path><path d="M0 -110C15.8 -101.4 31.6 -92.7 48.9 -84.7C66.1 -76.6 84.8 -69 95.3 -55C105.7 -41 107.8 -20.5 110 0L0 0Z" fill="#042883"></path></g></svg>