<svg id="visual" viewBox="0 0 2000 1000" width="2000" height="1000" xmlns="http://www.w3.org/2000/svg" xmlns:xlink="http://www.w3.org/1999/xlink" version="1.1"><rect x="0" y="0" width="2000" height="1000" fill="#042883"></rect><path d="M0 760L47.7 770.7C95.3 781.3 190.7 802.7 285.8 812C381 821.3 476 818.7 571.2 803C666.3 787.3 761.7 758.7 857 759.8C952.3 761 1047.7 792 1143 803.8C1238.3 815.7 1333.7 808.3 1428.8 812.2C1524 816 1619 831 1714.2 829.5C1809.3 828 1904.7 810 1952.3 801L2000 792L2000 1001L1952.3 1001C1904.7 1001 1809.3 1001 1714.2 1001C1619 1001 1524 1001 1428.8 1001C1333.7 1001 1238.3 1001 1143 1001C1047.7 1001 952.3 1001 857 1001C761.7 1001 666.3 1001 571.2 1001C476 1001 381 1001 285.8 1001C190.7 1001 95.3 1001 47.7 1001L0 1001Z" fill="#ffffff"></path><path d="M0 937L47.7 937.5C95.3 938 190.7 939 285.8 922.2C381 905.3 476 870.7 571.2 855.8C666.3 841 761.7 846 857 860C952.3 874 1047.7 897 1143 914C1238.3 931 1333.7 942 1428.8 930.7C1524 919.3 1619 885.7 1714.2 866.3C1809.3 847 1904.7 842 1952.3 839.5L2000 837L2000 1001L1952.3 1001C1904.7 1001 1809.3 1001 1714.2 1001C1619 1001 1524 1001 1428.8 1001C1333.7 1001 1238.3 1001 1143 1001C1047.7 1001 952.3 1001 857 1001C761.7 1001 666.3 1001 571.2 1001C476 1001 381 1001 285.8 1001C190.7 1001 95.3 1001 47.7 1001L0 1001Z" fill="#a5c1d8"></path></svg>